<svg width="32" height="29" fill="none" xmlns="http://www.w3.org/2000/svg"><path fill-rule="evenodd" clip-rule="evenodd" d="M.157 9.98l6.412-8.703a.8.8 0 01.556-.32l8.564-.952a.8.8 0 01.176 0l8.564.95a.8.8 0 01.556.32l6.413 8.706a.8.8 0 01-.04.997L16.232 28.47a.601.601 0 01-.908 0L.194 10.978a.8.8 0 01-.038-.997zm17.826-7.402L24.03 8.29a.4.4 0 00.674-.32l-.29-4.054a.2.2 0 01.392-.07l1.326 4.642a1 1 0 00.645.674l2.83.943a.2.2 0 01-.062.39h-2.72a.999.999 0 00-.843.463l-7.414 11.65a.3.3 0 01-.523-.291l5.314-10.96a.6.6 0 00-.54-.862H8.735a.599.599 0 00-.54.862l5.314 10.96a.3.3 0 01-.523.292l-7.414-11.65a1 1 0 00-.844-.464H1.925a.2.2 0 01-.062-.39L4.77 9.16a1 1 0 00.652-.677l1.325-4.637a.2.2 0 01.392.07L6.85 7.97a.4.4 0 00.674.32l6.047-5.712a.2.2 0 01.293.272L9.807 7.843a.4.4 0 00.31.652h11.32a.4.4 0 00.31-.652L17.69 2.85a.2.2 0 01.293-.272z" fill="#000"/></svg>