<svg width="20" height="16" fill="none" xmlns="http://www.w3.org/2000/svg"><path fill-rule="evenodd" clip-rule="evenodd" d="M19.96 1.905a8.437 8.437 0 01-2.353.636A4.08 4.08 0 0019.409.308a8.553 8.553 0 01-2.605.97A4.114 4.114 0 0013.81 0c-2.264 0-4.1 1.807-4.1 4.033 0 .32.038.627.106.922A11.675 11.675 0 011.367.75a3.908 3.908 0 00-.555 2.03 4.02 4.02 0 001.823 3.36 4.136 4.136 0 01-1.857-.505v.05c0 1.956 1.411 3.588 3.288 3.96a4.226 4.226 0 01-1.843.069 4.106 4.106 0 003.837 2.803 8.306 8.306 0 01-5.085 1.726A8.85 8.85 0 010 14.188 11.798 11.798 0 006.297 16c7.545 0 11.666-6.148 11.666-11.472 0-.171 0-.344-.013-.516A8.21 8.21 0 0020 1.922l-.04-.017z" fill="#000"/></svg>