<svg width="93" height="28" fill="none" xmlns="http://www.w3.org/2000/svg"><path d="M47.589 22.24h-2.764l-4.752-6.572-4.786 6.572h-2.764l6.134-8.46-5.628-7.785h2.763l4.28 5.898 4.281-5.898h2.764l-5.662 7.786 6.134 8.46zm14.357-4.617c0 1.416-.472 2.561-1.415 3.37-.944.81-2.292 1.247-4.045 1.247h-7.583v-7.246h-3.64l1.517-2.09h2.123V5.996h7.28c1.651 0 2.898.405 3.775 1.18.876.775 1.314 1.82 1.314 3.067 0 1.55-.708 2.764-2.123 3.539.91.337 1.584.876 2.056 1.516.505.64.741 1.45.741 2.326zm-10.583-4.685h4.651c.944 0 1.652-.202 2.124-.64.471-.405.707-1.045.707-1.888 0-.707-.236-1.28-.741-1.685-.472-.404-1.18-.606-2.09-.606h-4.65v4.82zm8.09 4.618c0-.843-.27-1.517-.776-1.922-.506-.438-1.28-.64-2.292-.64h-5.022v5.09h4.988c.978 0 1.753-.236 2.292-.641.54-.438.81-1.079.81-1.887zm19.21-3.438c0 1.247-.169 2.426-.54 3.438a8.107 8.107 0 01-1.617 2.696c-.742.775-1.584 1.382-2.528 1.753-.944.404-2.022.573-3.235.573-1.18 0-2.292-.203-3.236-.573a7.588 7.588 0 01-2.528-1.753c-.741-.775-1.28-1.685-1.651-2.696-.37-1.012-.54-2.191-.54-3.438 0-1.247.17-2.427.54-3.438.37-1.011.91-1.955 1.651-2.73a6.968 6.968 0 012.528-1.753c.944-.37 2.056-.573 3.236-.573 1.18 0 2.258.203 3.235.573a6.85 6.85 0 012.528 1.753 7.724 7.724 0 011.618 2.73 10.82 10.82 0 01.539 3.438zm-13.313 0c0 1.92.506 3.438 1.483 4.55.978 1.112 2.258 1.685 3.91 1.685 1.617 0 2.932-.573 3.91-1.685.977-1.112 1.448-2.63 1.448-4.55 0-1.921-.471-3.472-1.449-4.584-.977-1.112-2.292-1.685-3.91-1.685-1.617 0-2.931.573-3.909 1.685-.977 1.146-1.483 2.663-1.483 4.584zm21.132-.337l5.662-7.786h-2.763l-4.28 5.898-4.281-5.898h-2.764l5.662 7.786-6.134 8.46h2.764l4.752-6.573 4.786 6.572h2.764l-6.168-8.46zm-72.57-2.554c4.093 3.108 11.026 10.742 8.93 12.904a13.508 13.508 0 01-8.93 3.344c-3.415 0-6.56-1.25-8.928-3.344-2.131-2.162 4.836-9.796 8.895-12.87 0-.034.034-.034.034-.034zm0-10.877c-2.739 0-5.005.743-7.068 1.993-.034 0-.034.034-.034.068s.034.034.068.034c2.638-.575 6.629 1.688 7 1.925h.068c.373-.237 4.363-2.5 7.002-1.925.033 0 .067 0 .067-.034s0-.068-.034-.068C18.918 1.093 16.652.35 13.913.35zM4.41 4.235c-.034 0-.034.034-.068.034a13.575 13.575 0 00-1.217 17.835c0 .034.033.034.067.034s.034-.034 0-.068c-1.048-3.209 4.262-10.944 7.001-14.187l.034-.034c0-.034 0-.034-.034-.034-4.16-4.12-5.546-3.682-5.783-3.58zm13.224 3.547l-.034.033s0 .034.034.034c2.74 3.243 8.016 10.979 7.001 14.188v.067c.034 0 .068 0 .068-.034a13.565 13.565 0 002.773-8.208c0-3.75-1.522-7.161-4.025-9.627-.034-.034-.034-.034-.067-.034-.203-.067-1.59-.507-5.75 3.58z" fill="#000"/></svg>